<svg xmlns="http://www.w3.org/2000/svg" viewBox="0 0 16 16" shape-rendering="crispEdges">
<g>
            
            <rect x="14" y="2" width="1" height="1" fill="#4a2113" />
            <rect x="13" y="3" width="1" height="1" fill="#4a2113" />
            <rect x="12" y="4" width="1" height="1" fill="#4a2113" />
            <rect x="11" y="5" width="1" height="1" fill="#4a2113" />
            <rect x="10" y="6" width="1" height="1" fill="#4a2113" />
            <rect x="9" y="7" width="1" height="1" fill="#4a2113" />
            <rect x="8" y="8" width="1" height="1" fill="#4a2113" />

            <rect x="14" y="1" width="1" height="1" fill="#b45309" />
            <rect x="13" y="2" width="1" height="1" fill="#d4a373" />
            <rect x="12" y="3" width="1" height="1" fill="#d4a373" />
            <rect x="11" y="4" width="1" height="1" fill="#d4a373" />
            <rect x="10" y="5" width="1" height="1" fill="#d4a373" />
            <rect x="9" y="6" width="1" height="1" fill="#d4a373" />
            <rect x="8" y="7" width="1" height="1" fill="#d4a373" />
            <rect x="13" y="1" width="1" height="1" fill="#fefae0" />

            
            <rect x="6" y="7" width="2" height="2" fill="#d90429" />
            <rect x="7" y="8" width="2" height="2" fill="#d90429" />
            <rect x="7" y="7" width="1" height="1" fill="#ffd166" />

            
            <polygon points="6,9 8,8 6,13 5,15 4,14 3,15 2,14 1,15 1,12 5,8" fill="#4a2113" />
            <polygon points="6,9 7,9 5,12 4,14 3,13 2,14 2,12 5,8" fill="#e9c46a" />
            <rect x="4" y="10" width="1" height="3" fill="#b45309" />
            <rect x="3" y="11" width="1" height="2" fill="#b45309" />
            <rect x="5" y="10" width="1" height="2" fill="#ffd166" />
            <rect x="3" y="13" width="1" height="1" fill="#fff3b0" />

            
            <rect x="11" y="1" width="1" height="1" fill="#ffea00" />
            <rect x="12" y="0" width="1" height="1" fill="#ffffff" />
            <rect x="1" y="9" width="1" height="1" fill="#ffffff" />
            <rect x="0" y="10" width="1" height="1" fill="#90e0ef" />
            <rect x="7" y="14" width="1" height="1" fill="#ffea00" />
          </g>
</svg>
