<svg xmlns="http://www.w3.org/2000/svg" viewBox="0 0 16 16" shape-rendering="crispEdges">
<g>
            
            <rect x="4" y="1" width="1" height="3" fill="#5b2b2a" />
            <rect x="11" y="1" width="1" height="3" fill="#5b2b2a" />
            
            <rect x="3" y="2" width="10" height="12" fill="#fefae0" rx="1" />
            
            <rect x="3" y="2" width="10" height="3" fill="#e63946" />
            <rect x="3" y="4" width="10" height="1" fill="#9d0208" />
            
            <rect x="5" y="7" width="1" height="1" fill="#5b2b2a" />
            <rect x="7" y="7" width="1" height="1" fill="#5b2b2a" />
            <rect x="9" y="7" width="1" height="1" fill="#e63946" />
            <rect x="5" y="9" width="1" height="1" fill="#5b2b2a" />
            <rect x="7" y="9" width="1" height="1" fill="#5b2b2a" />
            <rect x="9" y="9" width="1" height="1" fill="#5b2b2a" />
            <rect x="11" y="9" width="1" height="1" fill="#5b2b2a" />
            <rect x="5" y="11" width="1" height="1" fill="#5b2b2a" />
            <rect x="7" y="11" width="1" height="1" fill="#5b2b2a" />
            <rect x="9" y="11" width="1" height="1" fill="#5b2b2a" />
          </g>
</svg>
